<svg width="656" height="402" viewBox="0 0 656 402" fill="none" xmlns="http://www.w3.org/2000/svg">
<path fill-rule="evenodd" clip-rule="evenodd" d="M531 122C564.689 122 592 94.6893 592 61C592 27.3107 564.689 0 531 0C497.311 0 470 27.3107 470 61C470 94.6893 497.311 122 531 122ZM531 94C549.225 94 564 79.2253 564 61C564 42.7747 549.225 28 531 28C512.775 28 498 42.7747 498 61C498 79.2253 512.775 94 531 94Z" fill="currentColor"/>
<path d="M14 61L482 61M582 61L642 61" stroke="currentColor" stroke-width="28" stroke-linecap="round"/>
<path fill-rule="evenodd" clip-rule="evenodd" d="M332 262C365.689 262 393 234.689 393 201C393 167.311 365.689 140 332 140C298.311 140 271 167.311 271 201C271 234.689 298.311 262 332 262ZM332 234C350.225 234 365 219.225 365 201C365 182.775 350.225 168 332 168C313.775 168 299 182.775 299 201C299 219.225 313.775 234 332 234Z" fill="currentColor"/>
<path d="M14 201L279 201M388 201L642 201" stroke="currentColor" stroke-width="28" stroke-linecap="round"/>
<path d="M14 341H100.5M197 341L642 341" stroke="currentColor" stroke-width="28" stroke-linecap="round"/>
<path fill-rule="evenodd" clip-rule="evenodd" d="M148 402C181.689 402 209 374.689 209 341C209 307.311 181.689 280 148 280C114.311 280 87 307.311 87 341C87 374.689 114.311 402 148 402ZM148 374C166.225 374 181 359.225 181 341C181 322.775 166.225 308 148 308C129.775 308 115 322.775 115 341C115 359.225 129.775 374 148 374Z" fill="currentColor"/>
</svg>
